<svg xmlns="http://www.w3.org/2000/svg" viewBox="0 0 1883 1106" width="1883" height="1106" fill="#ffffff"><path fill-rule="evenodd" clip-rule="evenodd" d="M910.67 8.00 C929.33 7.33 969.78 7.33 985.33 8.00 C1000.89 8.67 1000.89 11.33 1004.00 12.00 C999.56 13.33 985.33 16.89 977.33 20.00 C969.33 23.11 964.22 25.78 956.00 30.67 C947.78 35.56 938.00 40.89 928.00 49.33 C918.00 57.78 904.89 70.22 896.00 81.33 C887.11 92.44 879.56 106.89 874.67 116.00 C869.78 125.11 869.11 128.00 866.67 136.00 C864.22 144.00 861.33 150.67 860.00 164.00 C858.67 177.33 857.56 201.56 858.67 216.00 C859.78 230.44 863.33 240.67 866.67 250.67 C870.00 260.67 876.67 270.89 878.67 276.00 C880.67 281.11 881.78 276.00 878.67 281.33 C875.56 286.67 865.56 299.11 860.00 308.00 C854.44 316.89 847.78 328.89 845.33 334.67 C842.89 340.44 843.11 338.67 845.33 342.67 C847.56 346.67 856.22 354.44 858.67 358.67 C861.11 362.89 865.56 357.33 860.00 368.00 C854.44 378.67 831.11 413.56 825.33 422.67 C824.22 422.67 826.89 425.33 818.67 422.67 C810.44 420.00 788.89 412.44 776.00 406.67 C763.11 400.89 750.67 393.78 741.33 388.00 C732.00 382.22 727.11 378.22 720.00 372.00 C712.89 365.78 705.11 358.22 698.67 350.67 C692.22 343.11 686.44 335.11 681.33 326.67 C676.22 318.22 672.22 312.44 668.00 300.00 C663.78 287.56 658.22 266.89 656.00 252.00 C653.78 237.11 654.00 223.11 654.67 210.67 C655.33 198.22 656.67 189.78 660.00 177.33 C663.33 164.89 669.56 147.33 674.67 136.00 C679.78 124.67 685.33 116.67 690.67 109.33 C696.00 102.00 704.00 94.89 706.67 92.00 C706.67 91.56 706.67 89.78 706.67 89.33 C712.00 84.67 726.67 69.78 738.67 61.33 C750.67 52.89 764.67 45.11 778.67 38.67 C792.67 32.22 806.89 27.11 822.67 22.67 C838.44 18.22 858.67 14.44 873.33 12.00 C888.00 9.56 892.00 8.67 910.67 8.00 Z M1034.67 26.67 C1050.44 25.33 1074.67 25.78 1090.67 28.00 C1106.67 30.22 1117.33 34.00 1130.67 40.00 C1144.00 46.00 1158.44 54.44 1170.67 64.00 C1182.89 73.56 1194.67 85.78 1204.00 97.33 C1213.33 108.89 1221.33 123.11 1226.67 133.33 C1232.00 143.56 1233.56 150.44 1236.00 158.67 C1238.44 166.89 1240.22 171.11 1241.33 182.67 C1242.44 194.22 1243.11 216.44 1242.67 228.00 C1242.22 239.56 1240.67 244.00 1238.67 252.00 C1236.67 260.00 1233.78 268.44 1230.67 276.00 C1227.56 283.56 1224.00 290.67 1220.00 297.33 C1216.00 304.00 1212.44 309.33 1206.67 316.00 C1200.89 322.67 1193.11 330.89 1185.33 337.33 C1177.56 343.78 1168.67 349.78 1160.00 354.67 C1151.33 359.56 1143.78 363.33 1133.33 366.67 C1122.89 370.00 1109.56 373.33 1097.33 374.67 C1085.11 376.00 1071.11 375.56 1060.00 374.67 C1048.89 373.78 1035.56 370.22 1030.67 369.33 C1029.78 370.00 1026.44 371.78 1025.33 373.33 C1024.22 374.89 1028.22 372.22 1024.00 378.67 C1019.78 385.11 1004.22 405.56 1000.00 412.00 C995.78 418.44 1003.56 410.00 998.67 417.33 C993.78 424.67 975.33 449.56 970.67 456.00 C968.44 456.00 961.11 456.89 957.33 456.00 C953.56 455.11 951.78 451.33 948.00 450.67 C944.22 450.00 936.89 451.78 934.67 452.00 C933.33 454.00 927.78 457.78 926.67 464.00 C925.56 470.22 928.44 483.78 928.00 489.33 C927.56 494.89 926.00 495.11 924.00 497.33 C922.00 499.56 920.22 500.89 916.00 502.67 C911.78 504.44 901.56 507.11 898.67 508.00 C898.00 509.33 895.11 513.11 894.67 516.00 C894.22 518.89 893.78 518.89 896.00 525.33 C898.22 531.78 906.22 546.22 908.00 554.67 C909.78 563.11 908.67 570.67 906.67 576.00 C904.67 581.33 901.11 584.22 896.00 586.67 C890.89 589.11 881.33 589.11 876.00 590.67 C870.67 592.22 867.56 593.33 864.00 596.00 C860.44 598.67 856.44 601.33 854.67 606.67 C852.89 612.00 853.11 622.89 853.33 628.00 C853.56 633.11 855.56 631.56 856.00 637.33 C856.44 643.11 857.56 654.89 856.00 662.67 C854.44 670.44 849.78 679.11 846.67 684.00 C843.56 688.89 842.67 689.56 837.33 692.00 C832.00 694.44 829.56 695.11 814.67 698.67 C799.78 702.22 760.89 711.11 748.00 713.33 C735.11 715.56 739.11 712.22 737.33 712.00 C736.67 710.89 734.22 708.00 733.33 705.33 C732.44 702.67 695.33 754.89 732.00 696.00 C768.67 637.11 916.44 410.89 953.33 352.00 C990.22 293.11 953.33 344.22 953.33 342.67 C952.22 341.56 947.78 337.11 946.67 336.00 C945.11 336.00 938.89 336.00 937.33 336.00 C936.22 337.11 932.67 339.56 930.67 342.67 C928.67 345.78 942.44 328.00 925.33 354.67 C908.22 381.33 844.44 477.11 828.00 502.67 C811.56 528.22 828.22 505.56 826.67 508.00 C825.11 510.44 821.33 513.11 818.67 517.33 C816.00 521.56 813.78 528.44 810.67 533.33 C807.56 538.22 802.00 543.56 800.00 546.67 C798.00 549.78 800.67 548.89 798.67 552.00 C796.67 555.11 790.00 562.22 788.00 565.33 C786.00 568.44 788.67 567.56 786.67 570.67 C784.67 573.78 778.00 580.89 776.00 584.00 C774.00 587.11 776.67 586.22 774.67 589.33 C772.67 592.44 766.00 599.56 764.00 602.67 C762.00 605.78 764.67 604.89 762.67 608.00 C760.67 611.11 754.00 618.22 752.00 621.33 C750.00 624.44 752.22 624.22 750.67 626.67 C749.11 629.11 747.11 629.11 742.67 636.00 C738.22 642.89 727.56 662.44 724.00 668.00 C720.44 673.56 721.78 669.11 721.33 669.33 C721.11 668.89 721.56 671.11 720.00 666.67 C718.44 662.22 713.33 646.67 712.00 642.67 C741.78 596.44 860.89 412.67 890.67 365.33 C920.44 318.00 890.67 359.78 890.67 358.67 C887.33 355.56 874.00 343.11 870.67 340.00 C870.67 339.56 864.89 346.67 870.67 337.33 C876.44 328.00 899.56 293.78 905.33 284.00 C911.11 274.22 906.44 281.33 905.33 278.67 C904.22 276.00 901.78 275.11 898.67 268.00 C895.56 260.89 889.56 247.11 886.67 236.00 C883.78 224.89 881.78 213.56 881.33 201.33 C880.89 189.11 881.78 174.89 884.00 162.67 C886.22 150.44 889.33 139.56 894.67 128.00 C900.00 116.44 906.89 104.44 916.00 93.33 C925.11 82.22 941.11 68.44 949.33 61.33 C957.56 54.22 957.56 54.89 965.33 50.67 C973.11 46.44 984.44 40.00 996.00 36.00 C1007.56 32.00 1018.89 28.00 1034.67 26.67 Z M1094.67 86.67 C1089.11 87.11 1086.22 87.78 1081.33 90.67 C1076.44 93.56 1069.33 98.89 1065.33 104.00 C1061.33 109.11 1058.67 115.11 1057.33 121.33 C1056.00 127.56 1055.78 134.89 1057.33 141.33 C1058.89 147.78 1062.89 155.11 1066.67 160.00 C1070.44 164.89 1076.00 168.22 1080.00 170.67 C1084.00 173.11 1085.11 174.00 1090.67 174.67 C1096.22 175.33 1106.89 176.00 1113.33 174.67 C1119.78 173.33 1124.89 170.00 1129.33 166.67 C1133.78 163.33 1137.33 158.89 1140.00 154.67 C1142.67 150.44 1144.44 146.89 1145.33 141.33 C1146.22 135.78 1146.44 127.11 1145.33 121.33 C1144.22 115.56 1141.33 110.89 1138.67 106.67 C1136.00 102.44 1133.33 99.11 1129.33 96.00 C1125.33 92.89 1120.44 89.56 1114.67 88.00 C1108.89 86.44 1100.22 86.22 1094.67 86.67 Z M1172.00 373.33 C1177.78 371.33 1173.56 370.44 1178.67 374.67 C1183.78 378.89 1195.11 389.11 1202.67 398.67 C1210.22 408.22 1218.00 420.44 1224.00 432.00 C1230.00 443.56 1235.11 454.44 1238.67 468.00 C1242.22 481.56 1244.67 498.00 1245.33 513.33 C1246.00 528.67 1245.56 543.78 1242.67 560.00 C1239.78 576.22 1233.78 596.22 1228.00 610.67 C1222.22 625.11 1216.89 634.67 1208.00 646.67 C1199.11 658.67 1184.89 673.33 1174.67 682.67 C1164.44 692.00 1158.22 696.00 1146.67 702.67 C1135.11 709.33 1120.00 717.11 1105.33 722.67 C1090.67 728.22 1073.33 732.67 1058.67 736.00 C1044.00 739.33 1030.67 741.11 1017.33 742.67 C1004.00 744.22 998.44 745.11 978.67 745.33 C958.89 745.56 919.11 745.11 898.67 744.00 C878.22 742.89 872.44 741.78 856.00 738.67 C839.56 735.56 809.33 727.56 800.00 725.33 C800.22 724.89 801.11 723.11 801.33 722.67 C810.22 720.67 844.44 713.78 854.67 710.67 C864.89 707.56 850.67 723.33 862.67 704.00 C874.67 684.67 914.67 614.44 926.67 594.67 C938.67 574.89 931.33 587.78 934.67 585.33 C938.00 582.89 941.11 580.89 946.67 580.00 C952.22 579.11 960.89 580.89 968.00 580.00 C975.11 579.11 983.11 576.89 989.33 574.67 C995.56 572.44 1000.89 569.56 1005.33 566.67 C1009.78 563.78 1012.44 562.67 1016.00 557.33 C1019.56 552.00 1024.89 543.11 1026.67 534.67 C1028.44 526.22 1027.56 513.78 1026.67 506.67 C1025.78 499.56 1024.00 496.89 1021.33 492.00 C1018.67 487.11 1014.44 481.56 1010.67 477.33 C1006.89 473.11 1000.89 469.33 998.67 466.67 C996.44 464.00 997.56 462.22 997.33 461.33 C1004.67 450.22 1034.00 405.78 1041.33 394.67 C1053.56 394.67 1097.56 396.00 1114.67 394.67 C1131.78 393.33 1134.44 390.22 1144.00 386.67 C1153.56 383.11 1166.22 375.33 1172.00 373.33 Z M661.33 486.67 C682.44 486.00 761.33 487.78 781.33 488.00 C780.44 490.00 783.78 487.78 776.00 500.00 C768.22 512.22 741.78 550.22 734.67 561.33 C727.56 572.44 738.44 558.89 733.33 566.67 C728.22 574.44 710.44 598.00 704.00 608.00 C697.56 618.00 696.22 623.56 694.67 626.67 C693.78 626.22 693.11 630.00 689.33 624.00 C685.56 618.00 677.11 603.56 672.00 590.67 C666.89 577.78 661.56 558.67 658.67 546.67 C655.78 534.67 655.33 527.78 654.67 518.67 C654.00 509.56 654.67 496.44 654.67 492.00 C655.78 491.11 640.22 487.33 661.33 486.67 Z M100.00 850.67 C109.33 851.11 129.33 852.44 140.00 854.67 C150.67 856.89 157.56 860.67 164.00 864.00 C170.44 867.33 174.67 871.11 178.67 874.67 C182.67 878.22 185.11 881.11 188.00 885.33 C190.89 889.56 194.00 894.67 196.00 900.00 C198.00 905.33 199.56 912.67 200.00 917.33 C200.44 922.00 199.56 925.56 198.67 928.00 C197.78 930.44 195.33 931.33 194.67 932.00 C186.89 932.00 156.67 932.67 148.00 932.00 C139.33 931.33 144.22 930.89 142.67 928.00 C141.11 925.11 140.44 918.00 138.67 914.67 C136.89 911.33 135.11 910.00 132.00 908.00 C128.89 906.00 127.33 903.56 120.00 902.67 C112.67 901.78 95.11 901.78 88.00 902.67 C80.89 903.56 80.00 905.78 77.33 908.00 C74.67 910.22 72.89 912.89 72.00 916.00 C71.11 919.11 70.67 923.33 72.00 926.67 C73.33 930.00 73.56 932.67 80.00 936.00 C86.44 939.33 99.56 943.56 110.67 946.67 C121.78 949.78 135.56 951.11 146.67 954.67 C157.78 958.22 169.78 963.78 177.33 968.00 C184.89 972.22 187.78 974.89 192.00 980.00 C196.22 985.11 200.44 993.78 202.67 998.67 C204.89 1003.56 204.89 1003.33 205.33 1009.33 C205.78 1015.33 205.78 1028.44 205.33 1034.67 C204.89 1040.89 204.67 1041.56 202.67 1046.67 C200.67 1051.78 198.67 1058.89 193.33 1065.33 C188.00 1071.78 178.22 1080.44 170.67 1085.33 C163.11 1090.22 154.89 1092.44 148.00 1094.67 C141.11 1096.89 138.89 1098.00 129.33 1098.67 C119.78 1099.33 100.44 1099.33 90.67 1098.67 C80.89 1098.00 77.56 1096.67 70.67 1094.67 C63.78 1092.67 55.56 1089.78 49.33 1086.67 C43.11 1083.56 37.78 1079.56 33.33 1076.00 C28.89 1072.44 26.22 1070.22 22.67 1065.33 C19.11 1060.44 14.44 1052.00 12.00 1046.67 C9.56 1041.33 8.67 1038.44 8.00 1033.33 C7.33 1028.22 8.00 1018.89 8.00 1016.00 C9.11 1015.11 6.22 1011.56 14.67 1010.67 C23.11 1009.78 50.22 1010.00 58.67 1010.67 C67.11 1011.33 63.11 1010.89 65.33 1014.67 C67.56 1018.44 69.56 1028.89 72.00 1033.33 C74.44 1037.78 76.67 1039.11 80.00 1041.33 C83.33 1043.56 84.67 1045.56 92.00 1046.67 C99.33 1047.78 116.44 1048.67 124.00 1048.00 C131.56 1047.33 134.00 1044.67 137.33 1042.67 C140.67 1040.67 142.67 1039.78 144.00 1036.00 C145.33 1032.22 145.11 1022.67 145.33 1020.00 C144.22 1018.67 141.56 1014.22 138.67 1012.00 C135.78 1009.78 140.67 1010.44 128.00 1006.67 C115.33 1002.89 78.44 994.67 62.67 989.33 C46.89 984.00 40.44 979.56 33.33 974.67 C26.22 969.78 23.56 966.00 20.00 960.00 C16.44 954.00 13.33 946.67 12.00 938.67 C10.67 930.67 11.56 918.22 12.00 912.00 C12.44 905.78 12.44 906.22 14.67 901.33 C16.89 896.44 20.67 888.44 25.33 882.67 C30.00 876.89 37.11 870.67 42.67 866.67 C48.22 862.67 51.78 861.11 58.67 858.67 C65.56 856.22 77.11 853.33 84.00 852.00 C90.89 850.67 90.67 850.22 100.00 850.67 Z M88.00 858.67 C76.89 860.00 64.44 864.22 57.33 866.67 C50.22 869.11 49.78 870.00 45.33 873.33 C40.89 876.67 35.11 879.78 30.67 886.67 C26.22 893.56 20.67 906.44 18.67 914.67 C16.67 922.89 18.00 930.22 18.67 936.00 C19.33 941.78 19.78 944.00 22.67 949.33 C25.56 954.67 30.67 963.11 36.00 968.00 C41.33 972.89 45.56 974.89 54.67 978.67 C63.78 982.44 79.56 987.56 90.67 990.67 C101.78 993.78 112.22 994.44 121.33 997.33 C130.44 1000.22 140.00 1004.22 145.33 1008.00 C150.67 1011.78 152.22 1015.33 153.33 1020.00 C154.44 1024.67 153.78 1031.33 152.00 1036.00 C150.22 1040.67 145.56 1045.33 142.67 1048.00 C139.78 1050.67 140.67 1050.67 134.67 1052.00 C128.67 1053.33 114.89 1056.00 106.67 1056.00 C98.44 1056.00 90.89 1053.78 85.33 1052.00 C79.78 1050.22 76.89 1048.22 73.33 1045.33 C69.78 1042.44 66.44 1039.11 64.00 1034.67 C61.56 1030.22 59.56 1021.33 58.67 1018.67 C51.56 1018.67 23.11 1018.67 16.00 1018.67 C16.00 1021.33 14.22 1028.00 16.00 1034.67 C17.78 1041.33 22.44 1052.22 26.67 1058.67 C30.89 1065.11 36.22 1069.33 41.33 1073.33 C46.44 1077.33 48.22 1079.56 57.33 1082.67 C66.44 1085.78 85.11 1090.44 96.00 1092.00 C106.89 1093.56 115.33 1092.44 122.67 1092.00 C130.00 1091.56 132.44 1091.56 140.00 1089.33 C147.56 1087.11 160.00 1083.56 168.00 1078.67 C176.00 1073.78 183.56 1065.33 188.00 1060.00 C192.44 1054.67 192.89 1051.56 194.67 1046.67 C196.44 1041.78 198.00 1036.44 198.67 1030.67 C199.33 1024.89 199.33 1017.56 198.67 1012.00 C198.00 1006.44 196.89 1002.22 194.67 997.33 C192.44 992.44 190.67 987.56 185.33 982.67 C180.00 977.78 180.67 974.67 162.67 968.00 C144.67 961.33 93.11 948.22 77.33 942.67 C61.56 937.11 70.22 937.56 68.00 934.67 C65.78 931.78 64.67 928.22 64.00 925.33 C63.33 922.44 62.67 921.11 64.00 917.33 C65.33 913.56 67.56 906.44 72.00 902.67 C76.44 898.89 83.11 896.00 90.67 894.67 C98.22 893.33 110.00 893.56 117.33 894.67 C124.67 895.78 130.44 899.11 134.67 901.33 C138.89 903.56 140.00 904.00 142.67 908.00 C145.33 912.00 149.33 922.44 150.67 925.33 C157.33 925.33 184.00 925.33 190.67 925.33 C190.67 922.22 192.22 912.89 190.67 906.67 C189.11 900.44 184.89 893.11 181.33 888.00 C177.78 882.89 174.00 879.56 169.33 876.00 C164.67 872.44 160.89 869.56 153.33 866.67 C145.78 863.78 134.89 860.00 124.00 858.67 C113.11 857.33 99.11 857.33 88.00 858.67 Z M1000.00 857.33 C1008.67 856.67 1037.78 856.44 1046.67 857.33 C1055.56 858.22 1046.22 840.00 1053.33 862.67 C1060.44 885.33 1083.33 971.56 1089.33 993.33 C1089.78 993.11 1091.56 992.22 1092.00 992.00 C1096.67 975.11 1113.56 912.67 1120.00 890.67 C1126.44 868.67 1128.89 865.11 1130.67 860.00 C1131.56 859.56 1129.11 857.78 1136.00 857.33 C1142.89 856.89 1165.11 856.89 1172.00 857.33 C1178.89 857.78 1176.44 859.56 1177.33 860.00 C1184.00 882.22 1210.67 971.11 1217.33 993.33 C1223.11 972.44 1245.56 890.22 1252.00 868.00 C1258.44 845.78 1254.44 861.78 1256.00 860.00 C1257.56 858.22 1252.44 857.56 1261.33 857.33 C1270.22 857.11 1301.33 858.44 1309.33 858.67 C1310.00 859.56 1312.67 863.11 1313.33 864.00 C1313.11 865.56 1323.56 835.56 1312.00 873.33 C1300.44 911.11 1255.33 1054.44 1244.00 1090.67 C1235.33 1090.67 1200.67 1090.67 1192.00 1090.67 C1185.56 1070.00 1159.78 987.33 1153.33 966.67 C1147.11 987.11 1122.67 1068.44 1116.00 1089.33 C1109.33 1110.22 1113.78 1091.56 1113.33 1092.00 C1105.33 1092.00 1073.33 1092.00 1065.33 1092.00 C1064.22 1090.22 1061.11 1088.44 1058.67 1081.33 C1056.22 1074.22 1052.44 1055.11 1050.67 1049.33 C1048.89 1043.56 1049.78 1052.44 1048.00 1046.67 C1046.22 1040.89 1048.89 1043.78 1040.00 1014.67 C1031.11 985.56 1002.22 897.56 994.67 872.00 C987.11 846.44 994.67 863.11 994.67 861.33 C995.56 860.67 991.33 858.00 1000.00 857.33 Z M1002.67 865.33 C1002.44 865.78 1001.56 867.56 1001.33 868.00 C1002.44 871.78 996.67 854.44 1008.00 890.67 C1019.33 926.89 1059.11 1052.89 1069.33 1085.33 C1076.00 1085.33 1102.67 1085.33 1109.33 1085.33 C1116.67 1061.56 1146.00 966.44 1153.33 942.67 C1154.44 945.11 1152.67 933.78 1160.00 957.33 C1167.33 980.89 1191.11 1062.89 1197.33 1084.00 C1204.22 1084.22 1231.78 1085.11 1238.67 1085.33 C1250.00 1048.67 1295.33 902.00 1306.67 865.33 C1299.11 865.33 1268.89 865.33 1261.33 865.33 C1254.00 890.67 1224.67 992.00 1217.33 1017.33 C1216.44 1015.56 1213.11 1010.22 1212.00 1006.67 C1210.89 1003.11 1217.33 1019.56 1210.67 996.00 C1204.00 972.44 1178.44 887.11 1172.00 865.33 C1166.00 865.33 1142.00 865.33 1136.00 865.33 C1128.67 890.67 1099.33 992.00 1092.00 1017.33 C1091.56 1017.33 1089.78 1017.33 1089.33 1017.33 C1088.44 1014.67 1091.11 1026.67 1084.00 1001.33 C1076.89 976.00 1052.89 888.00 1046.67 865.33 C1039.33 865.33 1010.00 865.33 1002.67 865.33 Z M714.67 882.67 C723.11 882.22 736.00 882.22 745.33 884.00 C754.67 885.78 763.56 889.33 770.67 893.33 C777.78 897.33 783.33 901.78 788.00 908.00 C792.67 914.22 796.89 925.56 798.67 930.67 C800.44 935.78 799.33 936.44 798.67 938.67 C798.00 940.89 795.33 943.11 794.67 944.00 C788.67 944.00 764.67 944.00 758.67 944.00 C757.56 942.00 754.89 935.33 752.00 932.00 C749.11 928.67 744.44 925.78 741.33 924.00 C738.22 922.22 737.56 921.78 733.33 921.33 C729.11 920.89 721.33 920.22 716.00 921.33 C710.67 922.44 705.11 925.11 701.33 928.00 C697.56 930.89 695.11 935.11 693.33 938.67 C691.56 942.22 691.11 938.22 690.67 949.33 C690.22 960.44 690.22 994.22 690.67 1005.33 C691.11 1016.44 691.56 1012.22 693.33 1016.00 C695.11 1019.78 697.56 1024.89 701.33 1028.00 C705.11 1031.11 710.00 1033.78 716.00 1034.67 C722.00 1035.56 731.56 1035.11 737.33 1033.33 C743.11 1031.56 747.78 1026.67 750.67 1024.00 C753.56 1021.33 753.78 1020.22 754.67 1017.33 C755.56 1014.44 755.78 1008.44 756.00 1006.67 C756.67 1006.22 753.78 1004.22 760.00 1004.00 C766.22 1003.78 787.78 1005.11 793.33 1005.33 C794.22 1006.22 797.78 1009.78 798.67 1010.67 C798.44 1013.33 799.11 1020.67 797.33 1026.67 C795.56 1032.67 792.22 1040.89 788.00 1046.67 C783.78 1052.44 779.33 1057.11 772.00 1061.33 C764.67 1065.56 753.56 1070.00 744.00 1072.00 C734.44 1074.00 723.11 1073.78 714.67 1073.33 C706.22 1072.89 699.11 1070.89 693.33 1069.33 C687.56 1067.78 686.00 1068.22 680.00 1064.00 C674.00 1059.78 662.22 1049.33 657.33 1044.00 C652.44 1038.67 652.44 1036.44 650.67 1032.00 C648.89 1027.56 647.33 1033.11 646.67 1017.33 C646.00 1001.56 645.11 954.67 646.67 937.33 C648.22 920.00 651.11 920.44 656.00 913.33 C660.89 906.22 669.56 899.11 676.00 894.67 C682.44 890.22 688.22 888.67 694.67 886.67 C701.11 884.67 706.22 883.11 714.67 882.67 Z M284.00 886.67 C290.89 886.67 318.44 886.67 325.33 886.67 C326.22 887.56 323.11 873.11 330.67 892.00 C338.22 910.89 363.33 981.11 370.67 1000.00 C378.00 1018.89 373.11 1001.33 374.67 1005.33 C376.22 1009.33 376.67 1015.33 380.00 1024.00 C383.33 1032.67 392.00 1050.22 394.67 1057.33 C397.33 1064.44 395.78 1065.11 396.00 1066.67 C395.56 1067.11 393.78 1068.89 393.33 1069.33 C386.67 1069.33 360.00 1069.33 353.33 1069.33 C352.22 1067.56 348.67 1063.56 346.67 1058.67 C344.67 1053.78 342.22 1043.11 341.33 1040.00 C329.11 1040.00 280.22 1040.00 268.00 1040.00 C267.11 1043.33 264.67 1055.11 262.67 1060.00 C260.67 1064.89 257.11 1067.78 256.00 1069.33 C249.11 1069.11 221.56 1068.22 214.67 1068.00 C214.67 1066.44 214.00 1062.00 214.67 1058.67 C215.33 1055.33 216.89 1051.78 218.67 1048.00 C220.44 1044.22 215.56 1061.33 225.33 1036.00 C235.11 1010.67 267.56 920.89 277.33 896.00 C287.11 871.11 282.89 888.22 284.00 886.67 Z M444.00 886.67 C450.22 886.67 475.11 886.67 481.33 886.67 C483.56 889.33 489.56 894.89 494.67 902.67 C499.78 910.44 504.67 921.78 512.00 933.33 C519.33 944.89 532.67 962.44 538.67 972.00 C544.67 981.56 546.44 987.56 548.00 990.67 C548.22 974.00 549.11 907.33 549.33 890.67 C550.00 890.00 552.67 887.33 553.33 886.67 C559.78 886.89 585.56 887.78 592.00 888.00 C592.44 888.89 594.22 864.00 594.67 893.33 C595.11 922.67 595.33 1034.67 594.67 1064.00 C594.00 1093.33 591.33 1068.44 590.67 1069.33 C584.00 1069.11 557.33 1068.22 550.67 1068.00 C539.78 1050.89 496.22 982.44 485.33 965.33 C485.11 982.22 484.22 1049.78 484.00 1066.67 C483.56 1067.11 481.78 1068.89 481.33 1069.33 C475.11 1069.33 450.22 1069.33 444.00 1069.33 C443.56 1068.89 441.78 1067.11 441.33 1066.67 C441.11 1037.56 439.56 922.00 440.00 892.00 C440.44 862.00 443.33 887.56 444.00 886.67 Z M844.00 886.67 C867.56 886.67 961.78 886.67 985.33 886.67 C986.00 887.33 988.67 890.00 989.33 890.67 C989.11 896.22 988.22 918.44 988.00 924.00 C979.56 924.22 945.78 925.11 937.33 925.33 C937.33 948.67 937.33 1042.00 937.33 1065.33 C936.67 1066.00 934.00 1068.67 933.33 1069.33 C927.11 1069.33 902.22 1069.33 896.00 1069.33 C895.33 1068.67 892.67 1066.00 892.00 1065.33 C892.00 1042.00 892.00 948.67 892.00 925.33 C883.56 925.11 849.78 924.22 841.33 924.00 C841.11 918.44 840.22 896.22 840.00 890.67 C840.67 890.00 843.33 887.33 844.00 886.67 Z M1362.67 886.67 C1369.33 886.67 1395.11 886.00 1402.67 886.67 C1410.22 887.33 1399.56 869.78 1408.00 890.67 C1416.44 911.56 1442.89 985.11 1453.33 1012.00 C1463.78 1038.89 1467.33 1044.00 1470.67 1052.00 C1474.00 1060.00 1472.89 1057.56 1473.33 1060.00 C1473.78 1062.44 1473.33 1065.56 1473.33 1066.67 C1472.89 1067.11 1471.11 1068.89 1470.67 1069.33 C1464.22 1069.33 1438.44 1069.33 1432.00 1069.33 C1430.89 1068.00 1427.56 1066.22 1425.33 1061.33 C1423.11 1056.44 1419.78 1043.56 1418.67 1040.00 C1406.67 1040.00 1358.67 1040.00 1346.67 1040.00 C1345.33 1044.22 1340.67 1060.44 1338.67 1065.33 C1336.67 1070.22 1335.33 1068.67 1334.67 1069.33 C1328.00 1069.33 1301.33 1069.33 1294.67 1069.33 C1294.22 1068.89 1292.44 1067.11 1292.00 1066.67 C1292.00 1065.78 1291.33 1063.11 1292.00 1061.33 C1292.67 1059.56 1292.67 1064.67 1296.00 1056.00 C1299.33 1047.33 1308.67 1018.00 1312.00 1009.33 C1315.33 1000.67 1308.67 1023.33 1316.00 1004.00 C1323.33 984.67 1348.22 912.89 1356.00 893.33 C1363.78 873.78 1361.56 887.78 1362.67 886.67 Z M1521.33 886.67 C1537.56 886.67 1599.11 885.78 1618.67 886.67 C1638.22 887.56 1632.00 888.67 1638.67 892.00 C1645.33 895.33 1654.00 902.00 1658.67 906.67 C1663.33 911.33 1664.67 915.33 1666.67 920.00 C1668.67 924.67 1670.22 927.11 1670.67 934.67 C1671.11 942.22 1671.11 957.11 1669.33 965.33 C1667.56 973.56 1664.00 978.67 1660.00 984.00 C1656.00 989.33 1650.00 994.44 1645.33 997.33 C1640.67 1000.22 1634.22 1000.67 1632.00 1001.33 C1632.00 1002.00 1629.33 1001.56 1632.00 1005.33 C1634.67 1009.11 1641.56 1015.33 1648.00 1024.00 C1654.44 1032.67 1666.44 1050.89 1670.67 1057.33 C1674.89 1063.78 1672.89 1061.78 1673.33 1062.67 C1672.89 1063.78 1671.11 1068.22 1670.67 1069.33 C1663.33 1069.33 1634.67 1069.78 1626.67 1069.33 C1618.67 1068.89 1629.11 1076.00 1622.67 1066.67 C1616.22 1057.33 1593.78 1029.11 1588.00 1013.33 C1582.22 997.56 1588.00 978.89 1588.00 972.00 C1592.44 971.33 1608.67 970.00 1614.67 968.00 C1620.67 966.00 1622.22 962.00 1624.00 960.00 C1625.78 958.00 1625.33 960.00 1625.33 956.00 C1625.33 952.00 1625.33 940.44 1624.00 936.00 C1622.67 931.56 1620.22 931.11 1617.33 929.33 C1614.44 927.56 1615.78 926.00 1606.67 925.33 C1597.56 924.67 1570.00 925.33 1562.67 925.33 C1562.67 948.22 1563.33 1038.67 1562.67 1062.67 C1562.00 1086.67 1559.33 1068.22 1558.67 1069.33 C1552.22 1069.33 1526.44 1069.33 1520.00 1069.33 C1519.56 1068.89 1517.78 1067.11 1517.33 1066.67 C1517.33 1037.33 1517.33 920.00 1517.33 890.67 C1518.00 890.00 1520.67 887.33 1521.33 886.67 Z M1729.33 886.67 C1744.44 886.89 1800.67 886.22 1820.00 888.00 C1839.33 889.78 1837.78 892.67 1845.33 897.33 C1852.89 902.00 1860.89 910.89 1865.33 916.00 C1869.78 921.11 1870.22 922.89 1872.00 928.00 C1873.78 933.11 1875.33 933.11 1876.00 946.67 C1876.67 960.22 1877.33 994.44 1876.00 1009.33 C1874.67 1024.22 1872.00 1028.44 1868.00 1036.00 C1864.00 1043.56 1858.00 1049.78 1852.00 1054.67 C1846.00 1059.56 1838.44 1062.89 1832.00 1065.33 C1825.56 1067.78 1830.44 1068.67 1813.33 1069.33 C1796.22 1070.00 1744.00 1069.78 1729.33 1069.33 C1714.67 1068.89 1726.00 1067.11 1725.33 1066.67 C1725.11 1037.56 1724.22 921.11 1724.00 892.00 C1724.89 891.11 1728.44 887.56 1729.33 886.67 Z M1770.67 925.33 C1770.44 942.89 1769.56 1013.11 1769.33 1030.67 C1774.89 1030.67 1795.11 1031.11 1802.67 1030.67 C1810.22 1030.22 1810.67 1030.22 1814.67 1028.00 C1818.67 1025.78 1824.00 1021.56 1826.67 1017.33 C1829.33 1013.11 1830.00 1013.33 1830.67 1002.67 C1831.33 992.00 1831.11 963.56 1830.67 953.33 C1830.22 943.11 1829.78 945.11 1828.00 941.33 C1826.22 937.56 1822.67 933.11 1820.00 930.67 C1817.33 928.22 1820.22 927.56 1812.00 926.67 C1803.78 925.78 1777.56 925.56 1770.67 925.33 Z M1384.00 938.67 C1380.22 948.89 1365.11 989.78 1361.33 1000.00 C1368.44 1000.00 1396.89 1000.00 1404.00 1000.00 C1400.67 989.78 1387.33 948.89 1384.00 938.67 Z M305.33 940.00 C301.56 950.00 286.44 990.00 282.67 1000.00 C289.78 1000.00 318.22 1000.00 325.33 1000.00 C322.00 990.00 308.67 950.00 305.33 940.00 Z"></path></svg>