<svg xmlns="http://www.w3.org/2000/svg" viewBox="0 0 1883 263" width="1883" height="263" fill="currentColor"><path fill-rule="evenodd" clip-rule="evenodd" d="M100.00 8.00 C109.33 8.44 129.33 9.78 140.00 12.00 C150.67 14.22 157.56 18.00 164.00 21.33 C170.44 24.67 174.67 28.44 178.67 32.00 C182.67 35.56 185.11 38.44 188.00 42.67 C190.89 46.89 194.00 52.00 196.00 57.33 C198.00 62.67 199.56 70.00 200.00 74.67 C200.44 79.33 199.56 82.89 198.67 85.33 C197.78 87.78 195.33 88.67 194.67 89.33 C186.89 89.33 156.67 90.00 148.00 89.33 C139.33 88.67 144.22 88.22 142.67 85.33 C141.11 82.44 140.44 75.33 138.67 72.00 C136.89 68.67 135.11 67.33 132.00 65.33 C128.89 63.33 127.33 60.89 120.00 60.00 C112.67 59.11 95.11 59.11 88.00 60.00 C80.89 60.89 80.00 63.11 77.33 65.33 C74.67 67.56 72.89 70.22 72.00 73.33 C71.11 76.44 70.67 80.67 72.00 84.00 C73.33 87.33 73.56 90.00 80.00 93.33 C86.44 96.67 99.56 100.89 110.67 104.00 C121.78 107.11 135.56 108.44 146.67 112.00 C157.78 115.56 169.78 121.11 177.33 125.33 C184.89 129.56 187.78 132.22 192.00 137.33 C196.22 142.44 200.44 151.11 202.67 156.00 C204.89 160.89 204.89 160.67 205.33 166.67 C205.78 172.67 205.78 185.78 205.33 192.00 C204.89 198.22 204.67 198.89 202.67 204.00 C200.67 209.11 198.67 216.22 193.33 222.67 C188.00 229.11 178.22 237.78 170.67 242.67 C163.11 247.56 154.89 249.78 148.00 252.00 C141.11 254.22 138.89 255.33 129.33 256.00 C119.78 256.67 100.44 256.67 90.67 256.00 C80.89 255.33 77.56 254.00 70.67 252.00 C63.78 250.00 55.56 247.11 49.33 244.00 C43.11 240.89 37.78 236.89 33.33 233.33 C28.89 229.78 26.22 227.56 22.67 222.67 C19.11 217.78 14.44 209.33 12.00 204.00 C9.56 198.67 8.67 195.78 8.00 190.67 C7.33 185.56 8.00 176.22 8.00 173.33 C9.11 172.44 6.22 168.89 14.67 168.00 C23.11 167.11 50.22 167.33 58.67 168.00 C67.11 168.67 63.11 168.22 65.33 172.00 C67.56 175.78 69.56 186.22 72.00 190.67 C74.44 195.11 76.67 196.44 80.00 198.67 C83.33 200.89 84.67 202.89 92.00 204.00 C99.33 205.11 116.44 206.00 124.00 205.33 C131.56 204.67 134.00 202.00 137.33 200.00 C140.67 198.00 142.67 197.11 144.00 193.33 C145.33 189.56 145.11 180.00 145.33 177.33 C144.22 176.00 141.56 171.56 138.67 169.33 C135.78 167.11 140.67 167.78 128.00 164.00 C115.33 160.22 78.44 152.00 62.67 146.67 C46.89 141.33 40.44 136.89 33.33 132.00 C26.22 127.11 23.56 123.33 20.00 117.33 C16.44 111.33 13.33 104.00 12.00 96.00 C10.67 88.00 11.56 75.56 12.00 69.33 C12.44 63.11 12.44 63.56 14.67 58.67 C16.89 53.78 20.67 45.78 25.33 40.00 C30.00 34.22 37.11 28.00 42.67 24.00 C48.22 20.00 51.78 18.44 58.67 16.00 C65.56 13.56 77.11 10.67 84.00 9.33 C90.89 8.00 90.67 7.56 100.00 8.00 Z M88.00 16.00 C76.89 17.33 64.44 21.56 57.33 24.00 C50.22 26.44 49.78 27.33 45.33 30.67 C40.89 34.00 35.11 37.11 30.67 44.00 C26.22 50.89 20.67 63.78 18.67 72.00 C16.67 80.22 18.00 87.56 18.67 93.33 C19.33 99.11 19.78 101.33 22.67 106.67 C25.56 112.00 30.67 120.44 36.00 125.33 C41.33 130.22 45.56 132.22 54.67 136.00 C63.78 139.78 79.56 144.89 90.67 148.00 C101.78 151.11 112.22 151.78 121.33 154.67 C130.44 157.56 140.00 161.56 145.33 165.33 C150.67 169.11 152.22 172.67 153.33 177.33 C154.44 182.00 153.78 188.67 152.00 193.33 C150.22 198.00 145.56 202.67 142.67 205.33 C139.78 208.00 140.67 208.00 134.67 209.33 C128.67 210.67 114.89 213.33 106.67 213.33 C98.44 213.33 90.89 211.11 85.33 209.33 C79.78 207.56 76.89 205.56 73.33 202.67 C69.78 199.78 66.44 196.44 64.00 192.00 C61.56 187.56 59.56 178.67 58.67 176.00 C51.56 176.00 23.11 176.00 16.00 176.00 C16.00 178.67 14.22 185.33 16.00 192.00 C17.78 198.67 22.44 209.56 26.67 216.00 C30.89 222.44 36.22 226.67 41.33 230.67 C46.44 234.67 48.22 236.89 57.33 240.00 C66.44 243.11 85.11 247.78 96.00 249.33 C106.89 250.89 115.33 249.78 122.67 249.33 C130.00 248.89 132.44 248.89 140.00 246.67 C147.56 244.44 160.00 240.89 168.00 236.00 C176.00 231.11 183.56 222.67 188.00 217.33 C192.44 212.00 192.89 208.89 194.67 204.00 C196.44 199.11 198.00 193.78 198.67 188.00 C199.33 182.22 199.33 174.89 198.67 169.33 C198.00 163.78 196.89 159.56 194.67 154.67 C192.44 149.78 190.67 144.89 185.33 140.00 C180.00 135.11 180.67 132.00 162.67 125.33 C144.67 118.67 93.11 105.56 77.33 100.00 C61.56 94.44 70.22 94.89 68.00 92.00 C65.78 89.11 64.67 85.56 64.00 82.67 C63.33 79.78 62.67 78.44 64.00 74.67 C65.33 70.89 67.56 63.78 72.00 60.00 C76.44 56.22 83.11 53.33 90.67 52.00 C98.22 50.67 110.00 50.89 117.33 52.00 C124.67 53.11 130.44 56.44 134.67 58.67 C138.89 60.89 140.00 61.33 142.67 65.33 C145.33 69.33 149.33 79.78 150.67 82.67 C157.33 82.67 184.00 82.67 190.67 82.67 C190.67 79.56 192.22 70.22 190.67 64.00 C189.11 57.78 184.89 50.44 181.33 45.33 C177.78 40.22 174.00 36.89 169.33 33.33 C164.67 29.78 160.89 26.89 153.33 24.00 C145.78 21.11 134.89 17.33 124.00 16.00 C113.11 14.67 99.11 14.67 88.00 16.00 Z M1000.00 14.67 C1008.67 14.00 1037.78 13.78 1046.67 14.67 C1055.56 15.56 1046.22 -2.67 1053.33 20.00 C1060.44 42.67 1083.33 128.89 1089.33 150.67 C1089.78 150.44 1091.56 149.56 1092.00 149.33 C1096.67 132.44 1113.56 70.00 1120.00 48.00 C1126.44 26.00 1128.89 22.44 1130.67 17.33 C1131.56 16.89 1129.11 15.11 1136.00 14.67 C1142.89 14.22 1165.11 14.22 1172.00 14.67 C1178.89 15.11 1176.44 16.89 1177.33 17.33 C1184.00 39.56 1210.67 128.44 1217.33 150.67 C1223.11 129.78 1245.56 47.56 1252.00 25.33 C1258.44 3.11 1254.44 19.11 1256.00 17.33 C1257.56 15.56 1252.44 14.89 1261.33 14.67 C1270.22 14.44 1301.33 15.78 1309.33 16.00 C1310.00 16.89 1312.67 20.44 1313.33 21.33 C1313.11 22.89 1323.56 -7.11 1312.00 30.67 C1300.44 68.44 1255.33 211.78 1244.00 248.00 C1235.33 248.00 1200.67 248.00 1192.00 248.00 C1185.56 227.33 1159.78 144.67 1153.33 124.00 C1147.11 144.44 1122.67 225.78 1116.00 246.67 C1109.33 267.56 1113.78 248.89 1113.33 249.33 C1105.33 249.33 1073.33 249.33 1065.33 249.33 C1064.22 247.56 1061.11 245.78 1058.67 238.67 C1056.22 231.56 1052.44 212.44 1050.67 206.67 C1048.89 200.89 1049.78 209.78 1048.00 204.00 C1046.22 198.22 1048.89 201.11 1040.00 172.00 C1031.11 142.89 1002.22 54.89 994.67 29.33 C987.11 3.78 994.67 20.44 994.67 18.67 C995.56 18.00 991.33 15.33 1000.00 14.67 Z M1002.67 22.67 C1002.44 23.11 1001.56 24.89 1001.33 25.33 C1002.44 29.11 996.67 11.78 1008.00 48.00 C1019.33 84.22 1059.11 210.22 1069.33 242.67 C1076.00 242.67 1102.67 242.67 1109.33 242.67 C1116.67 218.89 1146.00 123.78 1153.33 100.00 C1154.44 102.44 1152.67 91.11 1160.00 114.67 C1167.33 138.22 1191.11 220.22 1197.33 241.33 C1204.22 241.56 1231.78 242.44 1238.67 242.67 C1250.00 206.00 1295.33 59.33 1306.67 22.67 C1299.11 22.67 1268.89 22.67 1261.33 22.67 C1254.00 48.00 1224.67 149.33 1217.33 174.67 C1216.44 172.89 1213.11 167.56 1212.00 164.00 C1210.89 160.44 1217.33 176.89 1210.67 153.33 C1204.00 129.78 1178.44 44.44 1172.00 22.67 C1166.00 22.67 1142.00 22.67 1136.00 22.67 C1128.67 48.00 1099.33 149.33 1092.00 174.67 C1091.56 174.67 1089.78 174.67 1089.33 174.67 C1088.44 172.00 1091.11 184.00 1084.00 158.67 C1076.89 133.33 1052.89 45.33 1046.67 22.67 C1039.33 22.67 1010.00 22.67 1002.67 22.67 Z M714.67 40.00 C723.11 39.56 736.00 39.56 745.33 41.33 C754.67 43.11 763.56 46.67 770.67 50.67 C777.78 54.67 783.33 59.11 788.00 65.33 C792.67 71.56 796.89 82.89 798.67 88.00 C800.44 93.11 799.33 93.78 798.67 96.00 C798.00 98.22 795.33 100.44 794.67 101.33 C788.67 101.33 764.67 101.33 758.67 101.33 C757.56 99.33 754.89 92.67 752.00 89.33 C749.11 86.00 744.44 83.11 741.33 81.33 C738.22 79.56 737.56 79.11 733.33 78.67 C729.11 78.22 721.33 77.56 716.00 78.67 C710.67 79.78 705.11 82.44 701.33 85.33 C697.56 88.22 695.11 92.44 693.33 96.00 C691.56 99.56 691.11 95.56 690.67 106.67 C690.22 117.78 690.22 151.56 690.67 162.67 C691.11 173.78 691.56 169.56 693.33 173.33 C695.11 177.11 697.56 182.22 701.33 185.33 C705.11 188.44 710.00 191.11 716.00 192.00 C722.00 192.89 731.56 192.44 737.33 190.67 C743.11 188.89 747.78 184.00 750.67 181.33 C753.56 178.67 753.78 177.56 754.67 174.67 C755.56 171.78 755.78 165.78 756.00 164.00 C756.67 163.56 753.78 161.56 760.00 161.33 C766.22 161.11 787.78 162.44 793.33 162.67 C794.22 163.56 797.78 167.11 798.67 168.00 C798.44 170.67 799.11 178.00 797.33 184.00 C795.56 190.00 792.22 198.22 788.00 204.00 C783.78 209.78 779.33 214.44 772.00 218.67 C764.67 222.89 753.56 227.33 744.00 229.33 C734.44 231.33 723.11 231.11 714.67 230.67 C706.22 230.22 699.11 228.22 693.33 226.67 C687.56 225.11 686.00 225.56 680.00 221.33 C674.00 217.11 662.22 206.67 657.33 201.33 C652.44 196.00 652.44 193.78 650.67 189.33 C648.89 184.89 647.33 190.44 646.67 174.67 C646.00 158.89 645.11 112.00 646.67 94.67 C648.22 77.33 651.11 77.78 656.00 70.67 C660.89 63.56 669.56 56.44 676.00 52.00 C682.44 47.56 688.22 46.00 694.67 44.00 C701.11 42.00 706.22 40.44 714.67 40.00 Z M284.00 44.00 C290.89 44.00 318.44 44.00 325.33 44.00 C326.22 44.89 323.11 30.44 330.67 49.33 C338.22 68.22 363.33 138.44 370.67 157.33 C378.00 176.22 373.11 158.67 374.67 162.67 C376.22 166.67 376.67 172.67 380.00 181.33 C383.33 190.00 392.00 207.56 394.67 214.67 C397.33 221.78 395.78 222.44 396.00 224.00 C395.56 224.44 393.78 226.22 393.33 226.67 C386.67 226.67 360.00 226.67 353.33 226.67 C352.22 224.89 348.67 220.89 346.67 216.00 C344.67 211.11 342.22 200.44 341.33 197.33 C329.11 197.33 280.22 197.33 268.00 197.33 C267.11 200.67 264.67 212.44 262.67 217.33 C260.67 222.22 257.11 225.11 256.00 226.67 C249.11 226.44 221.56 225.56 214.67 225.33 C214.67 223.78 214.00 219.33 214.67 216.00 C215.33 212.67 216.89 209.11 218.67 205.33 C220.44 201.56 215.56 218.67 225.33 193.33 C235.11 168.00 267.56 78.22 277.33 53.33 C287.11 28.44 282.89 45.56 284.00 44.00 Z M444.00 44.00 C450.22 44.00 475.11 44.00 481.33 44.00 C483.56 46.67 489.56 52.22 494.67 60.00 C499.78 67.78 504.67 79.11 512.00 90.67 C519.33 102.22 532.67 119.78 538.67 129.33 C544.67 138.89 546.44 144.89 548.00 148.00 C548.22 131.33 549.11 64.67 549.33 48.00 C550.00 47.33 552.67 44.67 553.33 44.00 C559.78 44.22 585.56 45.11 592.00 45.33 C592.44 46.22 594.22 21.33 594.67 50.67 C595.11 80.00 595.33 192.00 594.67 221.33 C594.00 250.67 591.33 225.78 590.67 226.67 C584.00 226.44 557.33 225.56 550.67 225.33 C539.78 208.22 496.22 139.78 485.33 122.67 C485.11 139.56 484.22 207.11 484.00 224.00 C483.56 224.44 481.78 226.22 481.33 226.67 C475.11 226.67 450.22 226.67 444.00 226.67 C443.56 226.22 441.78 224.44 441.33 224.00 C441.11 194.89 439.56 79.33 440.00 49.33 C440.44 19.33 443.33 44.89 444.00 44.00 Z M844.00 44.00 C867.56 44.00 961.78 44.00 985.33 44.00 C986.00 44.67 988.67 47.33 989.33 48.00 C989.11 53.56 988.22 75.78 988.00 81.33 C979.56 81.56 945.78 82.44 937.33 82.67 C937.33 106.00 937.33 199.33 937.33 222.67 C936.67 223.33 934.00 226.00 933.33 226.67 C927.11 226.67 902.22 226.67 896.00 226.67 C895.33 226.00 892.67 223.33 892.00 222.67 C892.00 199.33 892.00 106.00 892.00 82.67 C883.56 82.44 849.78 81.56 841.33 81.33 C841.11 75.78 840.22 53.56 840.00 48.00 C840.67 47.33 843.33 44.67 844.00 44.00 Z M1362.67 44.00 C1369.33 44.00 1395.11 43.33 1402.67 44.00 C1410.22 44.67 1399.56 27.11 1408.00 48.00 C1416.44 68.89 1442.89 142.44 1453.33 169.33 C1463.78 196.22 1467.33 201.33 1470.67 209.33 C1474.00 217.33 1472.89 214.89 1473.33 217.33 C1473.78 219.78 1473.33 222.89 1473.33 224.00 C1472.89 224.44 1471.11 226.22 1470.67 226.67 C1464.22 226.67 1438.44 226.67 1432.00 226.67 C1430.89 225.33 1427.56 223.56 1425.33 218.67 C1423.11 213.78 1419.78 200.89 1418.67 197.33 C1406.67 197.33 1358.67 197.33 1346.67 197.33 C1345.33 201.56 1340.67 217.78 1338.67 222.67 C1336.67 227.56 1335.33 226.00 1334.67 226.67 C1328.00 226.67 1301.33 226.67 1294.67 226.67 C1294.22 226.22 1292.44 224.44 1292.00 224.00 C1292.00 223.11 1291.33 220.44 1292.00 218.67 C1292.67 216.89 1292.67 222.00 1296.00 213.33 C1299.33 204.67 1308.67 175.33 1312.00 166.67 C1315.33 158.00 1308.67 180.67 1316.00 161.33 C1323.33 142.00 1348.22 70.22 1356.00 50.67 C1363.78 31.11 1361.56 45.11 1362.67 44.00 Z M1521.33 44.00 C1537.56 44.00 1599.11 43.11 1618.67 44.00 C1638.22 44.89 1632.00 46.00 1638.67 49.33 C1645.33 52.67 1654.00 59.33 1658.67 64.00 C1663.33 68.67 1664.67 72.67 1666.67 77.33 C1668.67 82.00 1670.22 84.44 1670.67 92.00 C1671.11 99.56 1671.11 114.44 1669.33 122.67 C1667.56 130.89 1664.00 136.00 1660.00 141.33 C1656.00 146.67 1650.00 151.78 1645.33 154.67 C1640.67 157.56 1634.22 158.00 1632.00 158.67 C1632.00 159.33 1629.33 158.89 1632.00 162.67 C1634.67 166.44 1641.56 172.67 1648.00 181.33 C1654.44 190.00 1666.44 208.22 1670.67 214.67 C1674.89 221.11 1672.89 219.11 1673.33 220.00 C1672.89 221.11 1671.11 225.56 1670.67 226.67 C1663.33 226.67 1634.67 227.11 1626.67 226.67 C1618.67 226.22 1629.11 233.33 1622.67 224.00 C1616.22 214.67 1593.78 186.44 1588.00 170.67 C1582.22 154.89 1588.00 136.22 1588.00 129.33 C1592.44 128.67 1608.67 127.33 1614.67 125.33 C1620.67 123.33 1622.22 119.33 1624.00 117.33 C1625.78 115.33 1625.33 117.33 1625.33 113.33 C1625.33 109.33 1625.33 97.78 1624.00 93.33 C1622.67 88.89 1620.22 88.44 1617.33 86.67 C1614.44 84.89 1615.78 83.33 1606.67 82.67 C1597.56 82.00 1570.00 82.67 1562.67 82.67 C1562.67 105.56 1563.33 196.00 1562.67 220.00 C1562.00 244.00 1559.33 225.56 1558.67 226.67 C1552.22 226.67 1526.44 226.67 1520.00 226.67 C1519.56 226.22 1517.78 224.44 1517.33 224.00 C1517.33 194.67 1517.33 77.33 1517.33 48.00 C1518.00 47.33 1520.67 44.67 1521.33 44.00 Z M1729.33 44.00 C1744.44 44.22 1800.67 43.56 1820.00 45.33 C1839.33 47.11 1837.78 50.00 1845.33 54.67 C1852.89 59.33 1860.89 68.22 1865.33 73.33 C1869.78 78.44 1870.22 80.22 1872.00 85.33 C1873.78 90.44 1875.33 90.44 1876.00 104.00 C1876.67 117.56 1877.33 151.78 1876.00 166.67 C1874.67 181.56 1872.00 185.78 1868.00 193.33 C1864.00 200.89 1858.00 207.11 1852.00 212.00 C1846.00 216.89 1838.44 220.22 1832.00 222.67 C1825.56 225.11 1830.44 226.00 1813.33 226.67 C1796.22 227.33 1744.00 227.11 1729.33 226.67 C1714.67 226.22 1726.00 224.44 1725.33 224.00 C1725.11 194.89 1724.22 78.44 1724.00 49.33 C1724.89 48.44 1728.44 44.89 1729.33 44.00 Z M1770.67 82.67 C1770.44 100.22 1769.56 170.44 1769.33 188.00 C1774.89 188.00 1795.11 188.44 1802.67 188.00 C1810.22 187.56 1810.67 187.56 1814.67 185.33 C1818.67 183.11 1824.00 178.89 1826.67 174.67 C1829.33 170.44 1830.00 170.67 1830.67 160.00 C1831.33 149.33 1831.11 120.89 1830.67 110.67 C1830.22 100.44 1829.78 102.44 1828.00 98.67 C1826.22 94.89 1822.67 90.44 1820.00 88.00 C1817.33 85.56 1820.22 84.89 1812.00 84.00 C1803.78 83.11 1777.56 82.89 1770.67 82.67 Z M1384.00 96.00 C1380.22 106.22 1365.11 147.11 1361.33 157.33 C1368.44 157.33 1396.89 157.33 1404.00 157.33 C1400.67 147.11 1387.33 106.22 1384.00 96.00 Z M305.33 97.33 C301.56 107.33 286.44 147.33 282.67 157.33 C289.78 157.33 318.22 157.33 325.33 157.33 C322.00 147.33 308.67 107.33 305.33 97.33 Z"></path></svg>